HIERARCHY
ROOT Hip
{
	OFFSET 0 1.131 0.0052
	CHANNELS 6 Xposition Yposition Zposition Xrotation Yrotation Zrotation
	JOINT Abdomen
	{
		OFFSET 0 -0.047353 -0.05
		CHANNELS 3 Xrotation Zrotation Yrotation
		JOINT Chest
		{
			OFFSET 0 0.132153 0.007439
			CHANNELS 3 Xrotation Zrotation Yrotation
			JOINT Neck
			{
				OFFSET 0 0.3078 0.006161
				CHANNELS 3 Xrotation Zrotation Yrotation
				JOINT Head_comp
				{
					OFFSET 0 0.0884 0.013
					CHANNELS 3 Xrotation Yrotation Zrotation
					End Site
					{
						OFFSET -0 0.156 0.0624
					}
				}
			}
			JOINT Left_Collar
			{
				OFFSET 0.02282 0.250342 0.017193
				CHANNELS 2 Yrotation Zrotation
				JOINT Left_Shoulder
				{
					OFFSET 0.15421 0 0
					CHANNELS 3 Xrotation Yrotation Zrotation
					JOINT Left_Forearm
					{
						OFFSET 0.265212 0 0
						CHANNELS 2 Yrotation Xrotation
						JOINT Left_Hand
						{
							OFFSET 0.27571 0 0
							CHANNELS 2 Zrotation Yrotation
							JOINT L1ProxPhalanx
							{
								OFFSET 0.014142 0.001733 0.014142
								CHANNELS 3 Yrotation Zrotation Xrotation
								JOINT L1MidPhalanx
								{
									OFFSET 0.04 0 0
									CHANNELS 1 Zrotation
									JOINT L1DistPhalanx
									{
										OFFSET 0.035 0 0
										CHANNELS 1 Zrotation
										End Site
										{
											OFFSET 0.029 -0 -0
										}
									}
								}
							}
							JOINT L2ProxPhalanx
							{
								OFFSET 0.0821037 0.001578 0.0219996
								CHANNELS 2 Yrotation Zrotation
								JOINT L2MidPhalanx
								{
									OFFSET 0.04 0 0
									CHANNELS 1 Zrotation
									JOINT L2DistPhalanx
									{
										OFFSET 0.028 0 0
										CHANNELS 1 Zrotation
										End Site
										{
											OFFSET 0.02 -0 -0
										}
									}
								}
							}
							JOINT L3ProxPhalanx
							{
								OFFSET 0.083 0 0
								CHANNELS 2 Yrotation Zrotation
								JOINT L3MidPhalanx
								{
									OFFSET 0.053 0 0
									CHANNELS 1 Zrotation
									JOINT L3DistPhalanx
									{
										OFFSET 0.03 0 0
										CHANNELS 1 Zrotation
										End Site
										{
											OFFSET 0.023 -0 -0
										}
									}
								}
							}
							JOINT L4ProxPhalanx
							{
								OFFSET 0.077274 -0.000761 -0.0207055
								CHANNELS 2 Yrotation Zrotation
								JOINT L4MidPhalanx
								{
									OFFSET 0.05 0 0
									CHANNELS 1 Zrotation
									JOINT L4DistPhalanx
									{
										OFFSET 0.03 0 0
										CHANNELS 1 Zrotation
										End Site
										{
											OFFSET 0.023 -0 -0
										}
									}
								}
							}
							JOINT L5ProxPhalanx
							{
								OFFSET 0.0675499 -0.001644 -0.039
								CHANNELS 2 Yrotation Zrotation
								JOINT L5MidPhalanx
								{
									OFFSET 0.04 0 0
									CHANNELS 1 Zrotation
									JOINT L5DistPhalanx
									{
										OFFSET 0.021 0 0
										CHANNELS 1 Zrotation
										End Site
										{
											OFFSET 0.022 -0 -0
										}
									}
								}
							}
						}
					}
				}
			}
			JOINT Right_Collar
			{
				OFFSET -0.02282 0.250342 0.017193
				CHANNELS 2 Yrotation Zrotation
				JOINT Right_Shoulder
				{
					OFFSET -0.15421 0 0
					CHANNELS 3 Xrotation Yrotation Zrotation
					JOINT Right_Forearm
					{
						OFFSET -0.265212 0 0
						CHANNELS 2 Yrotation Xrotation
						JOINT Right_Hand
						{
							OFFSET -0.27571 3e-006 0
							CHANNELS 2 Zrotation Yrotation
							JOINT R1ProxPhalanx
							{
								OFFSET -0.014142 0.001733 0.014142
								CHANNELS 3 Yrotation Zrotation Xrotation
								JOINT R1MidPhalanx
								{
									OFFSET -0.04 0 0
									CHANNELS 1 Zrotation
									JOINT R1DistPhalanx
									{
										OFFSET -0.035 0 0
										CHANNELS 1 Zrotation
										End Site
										{
											OFFSET -0.029 -0 -0
										}
									}
								}
							}
							JOINT R2ProxPhalanx
							{
								OFFSET -0.0821037 0.001578 0.0219996
								CHANNELS 2 Yrotation Zrotation
								JOINT R2MidPhalanx
								{
									OFFSET -0.04 0 0
									CHANNELS 1 Zrotation
									JOINT R2DistPhalanx
									{
										OFFSET -0.028 0 0
										CHANNELS 1 Zrotation
										End Site
										{
											OFFSET -0.02 -0 -0
										}
									}
								}
							}
							JOINT R3ProxPhalanx
							{
								OFFSET -0.083 0 0
								CHANNELS 2 Yrotation Zrotation
								JOINT R3MidPhalanx
								{
									OFFSET -0.053 0 0
									CHANNELS 1 Zrotation
									JOINT R3DistPhalanx
									{
										OFFSET -0.03 0 0
										CHANNELS 1 Zrotation
										End Site
										{
											OFFSET -0.023 -0 -0
										}
									}
								}
							}
							JOINT R4ProxPhalanx
							{
								OFFSET -0.077274 -0.000761 -0.0207055
								CHANNELS 2 Yrotation Zrotation
								JOINT R4MidPhalanx
								{
									OFFSET -0.05 0 0
									CHANNELS 1 Zrotation
									JOINT R4DistPhalanx
									{
										OFFSET -0.03 0 0
										CHANNELS 1 Zrotation
										End Site
										{
											OFFSET -0.023 -0 -0
										}
									}
								}
							}
							JOINT R5ProxPhalanx
							{
								OFFSET -0.0675499 -0.001644 -0.039
								CHANNELS 2 Yrotation Zrotation
								JOINT R5MidPhalanx
								{
									OFFSET -0.04 0 0
									CHANNELS 1 Zrotation
									JOINT R5DistPhalanx
									{
										OFFSET -0.021 0 0
										CHANNELS 1 Zrotation
										End Site
										{
											OFFSET -0.022 -0 -0
										}
									}
								}
							}
						}
					}
				}
			}
		}
	}
	JOINT Left_Thigh
	{
		OFFSET 0.1118 -0.1612 -0.0442
		CHANNELS 3 Xrotation Zrotation Yrotation
		JOINT Left_Shin
		{
			OFFSET 0 -0.477856 0
			CHANNELS 1 Xrotation
			JOINT Left_Foot
			{
				OFFSET 0 -0.431952 0
				CHANNELS 2 Xrotation Zrotation
				JOINT Left_Toe
				{
					OFFSET 0 -0.0442 0.119
					CHANNELS 1 Xrotation
					End Site
					{
						OFFSET -0 -0 0.07
					}
				}
			}
		}
	}
	JOINT Right_Thigh
	{
		OFFSET -0.1118 -0.1612 -0.0442
		CHANNELS 3 Xrotation Zrotation Yrotation
		JOINT Right_Shin
		{
			OFFSET 0 -0.477856 0
			CHANNELS 1 Xrotation
			JOINT Right_Foot
			{
				OFFSET 0 -0.431952 0
				CHANNELS 2 Xrotation Zrotation
				JOINT Right_Toe
				{
					OFFSET 0 -0.0442 0.119
					CHANNELS 1 Xrotation
					End Site
					{
						OFFSET -0 -0 0.07
					}
				}
			}
		}
	}
}
MOTION
Frames: 12
Frame Time: 0.009975
-0.10681 -0.0600827 0.0508374 -5.13379e-013 6.6479e-008 -5.10897e-006 0 0 0 0 0 0 0 0 0 0 0 0 0 0 -0 0 -0 0 0 0 0 -3.21269 -76.5504 143.223 -6.85137 3.8921 -1.9574 -40.0438 -1.3095 -4.17274 -3.55618 0.168106 -2.45656 -3.45843 -5.13863 2.11479 -11.3541 -1.59935 3.75975 5.04747 -41.6929 23.67 0 0 -0 0 -0 0 0 0 0 37.9386 28.008 73.698 26.2405 28.4472 13.118 18.2167 29.0248 19.6359 0 22.4358 32.6146 28.1246 -8.63175 30.7051 32.2053 23.7634 -7.83088 26.7354 35.1526 30.0193 0.734098 -0.314244 -0.0040265 0.0240216 -0.758108 0.314275 0 0.745503 -0.314244 -0.00408905 2.41484e-006 -0.745494 0.314275 0 
-0.10681 -0.0600827 0.0508374 -5.13379e-013 6.6479e-008 -5.10897e-006 0 0 0 0 0 0 0 0 0 0 0 0 0 0 -0 0 -0 0 0 0 0 -3.21269 -76.5504 143.223 -6.85137 3.8921 -1.9574 -40.0438 -1.3095 -4.17274 -3.55618 0.168106 -2.45656 -3.45843 -5.13863 2.11479 -11.3541 -1.59935 3.75975 5.04747 -41.6929 23.67 0 0 -0 0 -0 0 0 0 0 37.9386 28.008 73.698 26.2405 28.4472 13.118 18.2167 29.0248 19.6359 0 22.4358 32.6146 28.1246 -8.63175 30.7051 32.2053 23.7634 -7.83088 26.7354 35.1526 30.0193 0.734098 -0.314244 -0.0040265 0.0240216 -0.758108 0.314275 0 0.745503 -0.314244 -0.00408905 2.41484e-006 -0.745494 0.314275 0 
-0.101405 -0.0600559 0.0417702 -2.4803e-012 1.55589e-008 -5.08409e-006 0 -0 0 0 -0 0 0 -0 0 -0.710302 0.291084 -9.06697e-006 0.168186 -19.7644 -13.7215 -21.816 -25.8971 -43.7235 10.7981 7.22825 -12.7903 -4.33805 -76.4347 142.047 -6.99212 3.77264 -1.95262 -39.9936 -1.50295 -4.22687 -3.53886 0.00884354 -2.64427 -3.53114 -5.10642 1.94443 -11.4973 -1.68136 3.77071 4.90225 -41.6544 23.4517 -0.168186 19.7644 -13.7215 21.816 25.8971 43.7235 10.7981 -7.22825 12.7903 4.33805 76.4347 142.047 6.99212 -3.77264 1.95262 39.9936 1.50295 4.22687 3.53886 -0.00884354 2.64427 3.53114 5.10642 -1.94443 11.4973 1.68136 -3.77071 -4.90225 41.6544 -23.4517 0.163117 -0.654625 -0.00186834 0.0239015 -0.187008 0.654633 0 0.174466 -0.654625 -0.00199832 1.69901e-006 -0.174456 0.654633 0 
-0.10135 -0.0600543 0.0410316 -2.49276e-012 1.56371e-008 -5.10964e-006 0 -0 0 0 -0 0 0 -0 0 -0.712122 0.2909 -1.90055e-010 0.169023 -19.8637 -13.5348 -22.0207 -24.4455 -44.2645 10.8496 7.26442 -12.8545 -3.21269 -76.5504 143.223 -6.85137 3.8921 -1.9574 -40.0438 -1.3095 -4.17274 -3.55618 0.168106 -2.45656 -3.45843 -5.13863 2.11479 -11.3541 -1.59935 3.75975 5.04747 -41.6929 23.67 -0.169023 19.8637 -13.5348 22.0207 24.4455 44.2645 10.8496 -7.26442 12.8545 3.21269 76.5504 143.223 6.85137 -3.8921 1.9574 40.0438 1.3095 4.17274 3.55618 -0.168106 2.45656 3.45843 5.13863 -2.11479 11.3541 1.59935 -3.75975 -5.04747 41.6929 -23.67 0.116542 -0.658113 -0.00133861 0.0240216 -0.140556 0.65812 0 0.127948 -0.658113 -0.00146962 1.28066e-008 -0.127939 0.65812 0 
-0.10135 -0.0600543 0.0410229 1.4582e-012 1.13785e-008 -5.10965e-006 0 -0 0 0 -0 0 0 -0 0 -0.712098 0.290881 -5.68718e-015 0.169023 -19.8637 -13.5334 -22.0212 -24.437 -44.2669 10.8496 7.26442 -12.8545 -3.21269 -76.5504 143.223 -6.85137 3.8921 -1.9574 -40.0438 -1.3095 -4.17274 -3.55618 0.168106 -2.45656 -3.45843 -5.13863 2.11479 -11.3541 -1.59935 3.75975 5.04747 -41.6929 23.67 -0.169023 19.8637 -13.5334 22.0212 24.437 44.2669 10.8496 -7.26442 12.8545 3.21269 76.5504 143.223 6.85137 -3.8921 1.9574 40.0438 1.3095 4.17274 3.55618 -0.168106 2.45656 3.45843 5.13863 -2.11479 11.3541 1.59935 -3.75975 -5.04747 41.6929 -23.67 0.115994 -0.658117 -0.00133233 0.0240216 -0.140008 0.658123 0 0.1274 -0.658116 -0.00146334 0 -0.127392 0.658123 0 
-0.10135 -0.0600543 0.0410228 1.41469e-012 1.13614e-008 -5.10965e-006 0 -0 0 0 -0 0 0 -0 0 -0.712098 0.290881 -0 0.169023 -19.8637 -13.5334 -22.0212 -24.437 -44.2669 10.8496 7.26442 -12.8545 -3.21269 -76.5504 143.223 -6.85137 3.8921 -1.9574 -40.0438 -1.3095 -4.17274 -3.55618 0.168106 -2.45656 -3.45843 -5.13863 2.11479 -11.3541 -1.59935 3.75975 5.04747 -41.6929 23.67 -0.169023 19.8637 -13.5334 22.0212 24.437 44.2669 10.8496 -7.26442 12.8545 3.21269 76.5504 143.223 6.85137 -3.8921 1.9574 40.0438 1.3095 4.17274 3.55618 -0.168106 2.45656 3.45843 5.13863 -2.11479 11.3541 1.59935 -3.75975 -5.04747 41.6929 -23.67 0.115992 -0.658117 -0.00133231 0.0240216 -0.140005 0.658123 0 0.127396 -0.658116 -0.00146329 1.6862e-006 -0.12739 0.658123 0 
-0.10135 -0.0600543 0.0410228 -6.82532e-012 1.13612e-008 -5.10965e-006 0 -0 0 0 -0 0 0 -0 0 -0.712098 0.290881 -0 0.169023 -19.8637 -13.5334 -22.0212 -24.437 -44.2669 10.8496 7.26442 -12.8545 -3.21269 -76.5504 143.223 -6.85137 3.8921 -1.9574 -40.0438 -1.3095 -4.17274 -3.55618 0.168106 -2.45656 -3.45843 -5.13863 2.11479 -11.3541 -1.59935 3.75975 5.04747 -41.6929 23.67 -0.169023 19.8637 -13.5334 22.0212 24.437 44.2669 10.8496 -7.26442 12.8545 3.21269 76.5504 143.223 6.85137 -3.8921 1.9574 40.0438 1.3095 4.17274 3.55618 -0.168106 2.45656 3.45843 5.13863 -2.11479 11.3541 1.59935 -3.75975 -5.04747 41.6929 -23.67 0.115991 -0.658117 -0.00133229 0.0240216 -0.140005 0.658123 0 0.127396 -0.658116 -0.00146329 1.70755e-006 -0.12739 0.658123 0 
-0.10135 -0.0600543 0.0410228 6.27287e-013 1.13612e-008 -5.10965e-006 0 -0 0 0 -0 0 0 -0 0 -0.712098 0.290881 -0 0.169023 -19.8637 -13.5334 -22.0212 -24.437 -44.2669 10.8496 7.26442 -12.8545 -3.21269 -76.5504 143.223 -6.85137 3.8921 -1.9574 -40.0438 -1.3095 -4.17274 -3.55618 0.168106 -2.45656 -3.45843 -5.13863 2.11479 -11.3541 -1.59935 3.75975 5.04747 -41.6929 23.67 -0.169023 19.8637 -13.5334 22.0212 24.437 44.2669 10.8496 -7.26442 12.8545 3.21269 76.5504 143.223 6.85137 -3.8921 1.9574 40.0438 1.3095 4.17274 3.55618 -0.168106 2.45656 3.45843 5.13863 -2.11479 11.3541 1.59935 -3.75975 -5.04747 41.6929 -23.67 0.115991 -0.658117 -0.00133229 0.0240216 -0.140005 0.658123 0 0.127396 -0.658116 -0.00146329 1.70755e-006 -0.12739 0.658123 0 
-0.10135 -0.0600543 0.0410228 -1.48768e-013 1.13612e-008 -5.10965e-006 0 -0 0 0 -0 0 0 -0 0 -0.712098 0.290881 -3.88256e-019 0.169023 -19.8637 -13.5334 -22.0212 -24.437 -44.2669 10.8496 7.26442 -12.8545 -3.21269 -76.5504 143.223 -6.85137 3.8921 -1.9574 -40.0438 -1.3095 -4.17274 -3.55618 0.168106 -2.45656 -3.45843 -5.13863 2.11479 -11.3541 -1.59935 3.75975 5.04747 -41.6929 23.67 -0.169023 19.8637 -13.5334 22.0212 24.437 44.2669 10.8496 -7.26442 12.8545 3.21269 76.5504 143.223 6.85137 -3.8921 1.9574 40.0438 1.3095 4.17274 3.55618 -0.168106 2.45656 3.45843 5.13863 -2.11479 11.3541 1.59935 -3.75975 -5.04747 41.6929 -23.67 0.115991 -0.658117 -0.00133229 0.0240216 -0.140005 0.658123 0 0.127396 -0.658116 -0.00146329 2.41484e-006 -0.12739 0.658123 0 
-0.10135 -0.0600543 0.0410228 -5.47087e-012 1.13612e-008 -5.10965e-006 0 -0 0 0 -0 0 0 -0 0 -0.712098 0.290881 -0 0.169023 -19.8637 -13.5334 -22.0212 -24.437 -44.2669 10.8496 7.26442 -12.8545 -3.21269 -76.5504 143.223 -6.85137 3.8921 -1.9574 -40.0438 -1.3095 -4.17274 -3.55618 0.168106 -2.45656 -3.45843 -5.13863 2.11479 -11.3541 -1.59935 3.75975 5.04747 -41.6929 23.67 -0.169023 19.8637 -13.5334 22.0212 24.437 44.2669 10.8496 -7.26442 12.8545 3.21269 76.5504 143.223 6.85137 -3.8921 1.9574 40.0438 1.3095 4.17274 3.55618 -0.168106 2.45656 3.45843 5.13863 -2.11479 11.3541 1.59935 -3.75975 -5.04747 41.6929 -23.67 0.115991 -0.658117 -0.00133229 0.0240216 -0.140005 0.658123 0 0.127395 -0.658116 -0.00146327 3.37667e-006 -0.12739 0.658123 0 
-0.10135 -0.0600543 0.0410228 -4.48685e-013 1.13612e-008 -5.10965e-006 0 -0 0 0 -0 0 0 -0 0 -0.712098 0.290881 3.88256e-019 0.169023 -19.8637 -13.5334 -22.0212 -24.437 -44.2669 10.8496 7.26442 -12.8545 -3.21269 -76.5504 143.223 -6.85137 3.8921 -1.9574 -40.0438 -1.3095 -4.17274 -3.55618 0.168106 -2.45656 -3.45843 -5.13863 2.11479 -11.3541 -1.59935 3.75975 5.04747 -41.6929 23.67 -0.169023 19.8637 -13.5334 22.0212 24.437 44.2669 10.8496 -7.26442 12.8545 3.21269 76.5504 143.223 6.85137 -3.8921 1.9574 40.0438 1.3095 4.17274 3.55618 -0.168106 2.45656 3.45843 5.13863 -2.11479 11.3541 1.59935 -3.75975 -5.04747 41.6929 -23.67 0.115991 -0.658117 -0.00133229 0.0240216 -0.140005 0.658123 0 0.127395 -0.658116 -0.00146327 1.75024e-006 -0.12739 0.658123 0 
-0.10135 -0.0600543 0.0410228 2.75041e-012 1.13612e-008 -5.10965e-006 0 -0 0 0 -0 0 0 -0 0 -0.712098 0.290881 -0 0.169023 -19.8637 -13.5334 -22.0212 -24.437 -44.2669 10.8496 7.26442 -12.8545 -3.21269 -76.5504 143.223 -6.85137 3.8921 -1.9574 -40.0438 -1.3095 -4.17274 -3.55618 0.168106 -2.45656 -3.45843 -5.13863 2.11479 -11.3541 -1.59935 3.75975 5.04747 -41.6929 23.67 -0.169023 19.8637 -13.5334 22.0212 24.437 44.2669 10.8496 -7.26442 12.8545 3.21269 76.5504 143.223 6.85137 -3.8921 1.9574 40.0438 1.3095 4.17274 3.55618 -0.168106 2.45656 3.45843 5.13863 -2.11479 11.3541 1.59935 -3.75975 -5.04747 41.6929 -23.67 0.115991 -0.658117 -0.00133229 0.0240216 -0.140005 0.658123 0 0.127396 -0.658116 -0.00146329 1.70755e-006 -0.12739 0.658123 0 
